# This file uses centimeters as units for non-parametric coordinates.

mtllib Atril.mtl
g default
v -0.250000 0.197000 0.245710
v 0.250000 0.197000 0.245710
v -0.250000 0.947000 0.245710
v 0.250000 0.947000 0.245710
v -0.250000 0.947000 -0.254290
v 0.250000 0.947000 -0.254290
v -0.250000 0.197000 -0.254290
v 0.250000 0.197000 -0.254290
v -0.454969 0.757664 0.537868
v 0.510948 1.016481 0.533505
v -0.506733 0.950850 0.537868
v 0.459184 1.209666 0.533505
v -0.510948 0.949720 -0.533079
v 0.454969 1.208537 -0.537443
v -0.459184 0.756535 -0.533079
v 0.506733 1.015352 -0.537443
v -0.500000 0.062500 0.504235
v 0.500000 0.062500 0.504235
v -0.500000 0.187500 0.504235
v 0.500000 0.187500 0.504235
v -0.500000 0.187500 -0.495765
v 0.500000 0.187500 -0.495765
v -0.500000 0.062500 -0.495765
v 0.500000 0.062500 -0.495765
vt 0.375000 0.000000
vt 0.625000 0.000000
vt 0.375000 0.250000
vt 0.625000 0.250000
vt 0.375000 0.500000
vt 0.625000 0.500000
vt 0.375000 0.750000
vt 0.625000 0.750000
vt 0.375000 1.000000
vt 0.625000 1.000000
vt 0.875000 0.000000
vt 0.875000 0.250000
vt 0.000000 0.000000
vt 1.000000 0.000000
vt 1.000000 1.000000
vt 0.000000 1.000000
vt 0.375000 0.000000
vt 0.625000 0.000000
vt 0.625000 0.250000
vt 0.375000 0.250000
vt 1.000000 0.000000
vt 1.000000 1.000000
vt 0.000000 1.000000
vt 0.000000 0.000000
vt 0.375000 0.500000
vt 0.625000 0.500000
vt 0.625000 0.750000
vt 0.375000 0.750000
vt 0.625000 1.000000
vt 0.375000 1.000000
vt 0.875000 0.000000
vt 0.875000 0.250000
vt 0.125000 0.000000
vt 0.125000 0.250000
vt 0.375000 0.000000
vt 0.625000 0.000000
vt 0.625000 0.250000
vt 0.375000 0.250000
vt 0.932078 0.067922
vt 0.932078 0.932078
vt 0.067922 0.932078
vt 0.067922 0.067922
vt 0.375000 0.500000
vt 0.625000 0.500000
vt 0.625000 0.750000
vt 0.375000 0.750000
vt 0.625000 1.000000
vt 0.375000 1.000000
vt 1.000000 -0.000000
vt 1.000000 1.000000
vt 0.000000 1.000000
vt 0.000000 -0.000000
vt 0.000000 1.000000
vt 0.000000 -0.000000
vt 1.000000 -0.000000
vt 1.000000 1.000000
vn 0.000000 0.000000 1.000000
vn 0.000000 0.000000 1.000000
vn 0.000000 0.000000 1.000000
vn 0.000000 0.000000 1.000000
vn 0.000000 1.000000 0.000000
vn 0.000000 1.000000 0.000000
vn 0.000000 1.000000 0.000000
vn 0.000000 1.000000 0.000000
vn 0.000000 0.000000 -1.000000
vn 0.000000 0.000000 -1.000000
vn 0.000000 0.000000 -1.000000
vn 0.000000 0.000000 -1.000000
vn 0.000000 -1.000000 0.000000
vn 0.000000 -1.000000 0.000000
vn 0.000000 -1.000000 0.000000
vn 0.000000 -1.000000 0.000000
vn 1.000000 0.000000 0.000000
vn 1.000000 0.000000 0.000000
vn 1.000000 0.000000 0.000000
vn 1.000000 0.000000 0.000000
vn -1.000000 0.000000 0.000000
vn -1.000000 0.000000 0.000000
vn -1.000000 0.000000 0.000000
vn -1.000000 0.000000 0.000000
vn 0.004215 0.001129 0.999991
vn 0.004215 0.001129 0.999991
vn 0.004215 0.001129 0.999991
vn 0.004215 0.001129 0.999991
vn -0.258819 0.965926 0.000000
vn -0.258819 0.965926 -0.000000
vn -0.258819 0.965926 -0.000000
vn -0.258819 0.965926 -0.000000
vn -0.004215 -0.001129 -0.999991
vn -0.004215 -0.001129 -0.999991
vn -0.004215 -0.001129 -0.999991
vn -0.004215 -0.001129 -0.999991
vn 0.258819 -0.965926 -0.000000
vn 0.258819 -0.965926 0.000000
vn 0.258819 -0.965926 0.000000
vn 0.258819 -0.965926 0.000000
vn 0.965918 0.258817 -0.004074
vn 0.965918 0.258817 -0.004074
vn 0.965918 0.258817 -0.004074
vn 0.965918 0.258817 -0.004074
vn -0.965918 -0.258817 0.004074
vn -0.965918 -0.258817 0.004074
vn -0.965918 -0.258817 0.004074
vn -0.965918 -0.258817 0.004074
vn 0.000000 0.000000 1.000000
vn 0.000000 0.000000 1.000000
vn 0.000000 0.000000 1.000000
vn 0.000000 0.000000 1.000000
vn 0.000000 1.000000 0.000000
vn 0.000000 1.000000 0.000000
vn 0.000000 1.000000 0.000000
vn 0.000000 1.000000 0.000000
vn 0.000000 0.000000 -1.000000
vn 0.000000 0.000000 -1.000000
vn 0.000000 0.000000 -1.000000
vn 0.000000 0.000000 -1.000000
vn 0.000000 -1.000000 0.000000
vn 0.000000 -1.000000 0.000000
vn 0.000000 -1.000000 0.000000
vn 0.000000 -1.000000 0.000000
vn 1.000000 0.000000 0.000000
vn 1.000000 0.000000 0.000000
vn 1.000000 0.000000 0.000000
vn 1.000000 0.000000 0.000000
vn -1.000000 0.000000 0.000000
vn -1.000000 0.000000 0.000000
vn -1.000000 0.000000 0.000000
vn -1.000000 0.000000 0.000000
s 1
g pCube4
usemtl lambert3SG
f 1/1/1 2/2/2 3/3/3
f 3/3/3 2/2/2 4/4/4
s 2
usemtl lambert4SG
f 3/3/5 4/4/6 5/5/7
f 5/5/7 4/4/6 6/6/8
s 3
usemtl lambert3SG
f 5/5/9 6/6/10 7/7/11
f 7/7/11 6/6/10 8/8/12
s 4
usemtl lambert4SG
f 7/7/13 8/8/14 1/9/15
f 1/9/15 8/8/14 2/10/16
s 5
usemtl lambert3SG
f 2/2/17 8/11/18 4/4/19
f 4/4/19 8/11/18 6/12/20
s 6
usemtl lambert4SG
f 7/13/21 1/14/22 5/16/23
f 5/16/23 1/14/22 3/15/24
s 7
usemtl lambert3SG
f 9/17/25 10/18/26 11/20/27
f 11/20/27 10/18/26 12/19/28
s 8
usemtl lambert6SG
f 11/21/29 12/22/30 13/24/31
f 13/24/31 12/22/30 14/23/32
s 9
f 13/25/33 14/26/34 15/28/35
f 15/28/35 14/26/34 16/27/36
s 10
f 15/28/37 16/27/38 9/30/39
f 9/30/39 16/27/38 10/29/40
s 11
f 10/18/41 16/31/42 12/19/43
f 12/19/43 16/31/42 14/32/44
s 12
usemtl lambert3SG
f 15/33/45 9/17/46 13/34/47
f 13/34/47 9/17/46 11/20/48
s 13
f 17/35/49 18/36/50 19/38/51
f 19/38/51 18/36/50 20/37/52
s 14
usemtl lambert2SG
f 19/39/53 20/40/54 21/42/55
f 21/42/55 20/40/54 22/41/56
s 15
usemtl lambert3SG
f 21/43/57 22/44/58 23/46/59
f 23/46/59 22/44/58 24/45/60
s 16
usemtl lambert2SG
f 23/46/61 24/45/62 17/48/63
f 17/48/63 24/45/62 18/47/64
s 17
usemtl lambert3SG
f 18/49/65 24/50/66 20/52/67
f 20/52/67 24/50/66 22/51/68
s 18
f 23/53/69 17/54/70 21/56/71
f 21/56/71 17/54/70 19/55/72
