# This file uses centimeters as units for non-parametric coordinates.

mtllib BarrilTapa.mtl
g default
v -0.485344 -0.561411 -0.031367
v -0.485344 -0.561411 0.018633
v -0.485344 0.438589 -0.031367
v -0.485344 0.438589 0.018633
v 0.514656 0.438589 -0.031367
v 0.514656 0.438589 0.018633
v 0.514656 -0.561411 -0.031367
v 0.514656 -0.561411 0.018633
v -0.485344 -0.561411 -0.031367
v -0.485344 -0.561411 0.018633
v -0.485344 0.438589 -0.031367
v -0.485344 0.438589 0.018633
v 0.514656 0.438589 -0.031367
v 0.514656 0.438589 0.018633
v 0.514656 -0.561411 -0.031367
v 0.514656 -0.561411 0.018633
vt -0.000000 0.000000
vt 1.000000 0.000000
vt -0.000000 1.000000
vt 1.000000 1.000000
vt -0.000000 -0.000000
vt 1.000000 -0.000000
vt -0.000000 1.000000
vt 1.000000 1.000000
vt -0.000000 0.000000
vt 1.000000 0.000000
vt -0.000000 1.000000
vt 1.000000 1.000000
vt -0.000000 0.000000
vt 1.000000 0.000000
vt -0.000000 1.000000
vt 1.000000 1.000000
vt 0.000000 0.000000
vt 1.000000 0.000000
vt 0.000000 1.000000
vt 1.000000 1.000000
vt 0.000000 0.000000
vt 1.000000 0.000000
vt 0.000000 1.000000
vt 1.000000 1.000000
vt -0.000000 0.000000
vt 1.000000 0.000000
vt -0.000000 1.000000
vt 1.000000 1.000000
vt -0.000000 -0.000000
vt 1.000000 -0.000000
vt -0.000000 1.000000
vt 1.000000 1.000000
vt -0.000000 0.000000
vt 1.000000 0.000000
vt -0.000000 1.000000
vt 1.000000 1.000000
vt -0.000000 0.000000
vt 1.000000 0.000000
vt -0.000000 1.000000
vt 1.000000 1.000000
vt 0.000000 0.000000
vt 1.000000 0.000000
vt 0.000000 1.000000
vt 1.000000 1.000000
vt 0.000000 0.000000
vt 1.000000 0.000000
vt 0.000000 1.000000
vt 1.000000 1.000000
vn -1.000000 0.000000 0.000000
vn -1.000000 0.000000 0.000000
vn -1.000000 0.000000 0.000000
vn -1.000000 0.000000 0.000000
vn 0.000000 1.000000 0.000000
vn 0.000000 1.000000 0.000000
vn 0.000000 1.000000 0.000000
vn 0.000000 1.000000 0.000000
vn 1.000000 0.000000 0.000000
vn 1.000000 0.000000 0.000000
vn 1.000000 0.000000 0.000000
vn 1.000000 0.000000 0.000000
vn 0.000000 -1.000000 0.000000
vn 0.000000 -1.000000 0.000000
vn 0.000000 -1.000000 0.000000
vn 0.000000 -1.000000 0.000000
vn 0.000000 0.000000 1.000000
vn 0.000000 0.000000 1.000000
vn 0.000000 0.000000 1.000000
vn 0.000000 0.000000 1.000000
vn -0.000000 0.000000 -1.000000
vn -0.000000 0.000000 -1.000000
vn -0.000000 0.000000 -1.000000
vn -0.000000 0.000000 -1.000000
vn -1.000000 0.000000 0.000000
vn -1.000000 0.000000 0.000000
vn -1.000000 0.000000 0.000000
vn -1.000000 0.000000 0.000000
vn 0.000000 1.000000 0.000000
vn 0.000000 1.000000 0.000000
vn 0.000000 1.000000 0.000000
vn 0.000000 1.000000 0.000000
vn 1.000000 0.000000 0.000000
vn 1.000000 0.000000 0.000000
vn 1.000000 0.000000 0.000000
vn 1.000000 0.000000 0.000000
vn 0.000000 -1.000000 0.000000
vn 0.000000 -1.000000 0.000000
vn 0.000000 -1.000000 0.000000
vn 0.000000 -1.000000 0.000000
vn 0.000000 0.000000 1.000000
vn 0.000000 0.000000 1.000000
vn 0.000000 0.000000 1.000000
vn 0.000000 0.000000 1.000000
vn -0.000000 0.000000 -1.000000
vn -0.000000 0.000000 -1.000000
vn -0.000000 0.000000 -1.000000
vn -0.000000 0.000000 -1.000000
s 1
g pCube6
usemtl lambert2SG
f 3/3/1 1/1/2 4/4/3
f 4/4/3 1/1/2 2/2/4
s 2
f 5/7/5 3/5/6 6/8/7
f 6/8/7 3/5/6 4/6/8
s 3
f 7/11/9 5/9/10 8/12/11
f 8/12/11 5/9/10 6/10/12
s 4
f 1/15/13 7/13/14 2/16/15
f 2/16/15 7/13/14 8/14/16
s 5
f 4/19/17 2/17/18 6/20/19
f 6/20/19 2/17/18 8/18/20
s 6
f 5/23/21 7/21/22 3/24/23
f 3/24/23 7/21/22 1/22/24
s 7
f 11/27/25 9/25/26 12/28/27
f 12/28/27 9/25/26 10/26/28
s 8
f 13/31/29 11/29/30 14/32/31
f 14/32/31 11/29/30 12/30/32
s 9
f 15/35/33 13/33/34 16/36/35
f 16/36/35 13/33/34 14/34/36
s 10
f 9/39/37 15/37/38 10/40/39
f 10/40/39 15/37/38 16/38/40
s 11
f 12/43/41 10/41/42 14/44/43
f 14/44/43 10/41/42 16/42/44
s 12
f 13/47/45 15/45/46 11/48/47
f 11/48/47 15/45/46 9/46/48
