# This file uses centimeters as units for non-parametric coordinates.

mtllib Silla.mtl
g default
v 0.500000 0.000000 0.500000
v 0.500000 0.000000 -0.500000
v 0.500000 1.000000 0.500000
v -0.500000 1.000000 0.500000
v -0.500000 0.000000 0.500000
v -0.500000 0.000000 -0.500000
v 0.500000 0.500000 0.000000
v 0.500000 0.000000 0.000000
v 0.500000 0.500000 -0.500000
v 0.500000 1.000000 0.000000
v 0.500000 0.500000 0.500000
v 0.000000 1.000000 0.000000
v -0.500000 1.000000 0.000000
v 0.000000 1.000000 0.500000
v -0.500000 0.500000 0.000000
v -0.500000 0.500000 -0.500000
v -0.500000 0.000000 0.000000
v -0.500000 0.500000 0.500000
v 0.000000 0.000000 -0.500000
v 0.000000 0.000000 0.500000
v 0.000000 0.500000 -0.500000
vt 0.500000 0.500000
vt 0.000000 0.500000
vt 0.000000 -0.000000
vt 0.500000 0.500000
vt 0.500000 1.000000
vt -0.000000 1.000000
vt -0.000000 0.500000
vt -0.000000 0.000000
vt 0.500000 1.000000
vt 0.500000 1.000000
vt 0.000000 1.000000
vt 0.500000 0.000000
vt 1.000000 0.000000
vt 1.000000 0.500000
vt 1.000000 1.000000
vt 0.500000 1.000000
vt 0.500000 0.728719
vt 0.500000 1.000000
vt -0.000000 0.719393
vt -0.000000 1.000000
vt 0.000000 0.500000
vt 0.500000 0.000000
vt 0.000000 -0.000000
vt 1.000000 0.000000
vt 1.000000 0.500000
vt 1.000000 1.000000
vt 0.000000 1.000000
vt 0.000000 0.000000
vt 0.500000 0.000000
vt 0.000000 0.500000
vt 0.000000 0.000000
vt 0.500000 0.000000
vt 0.000000 0.271726
vt 0.500000 0.262639
vt 1.000000 0.271726
vt 1.000000 0.719393
vt 0.000000 0.290622
vt 1.000000 0.290622
vt 1.000000 0.709823
vt 0.000000 0.709823
vt 1.000000 0.000000
vt 1.000000 0.500000
vt 1.000000 1.000000
vt 0.000000 0.000000
vt 1.000000 0.000000
vt 1.000000 1.000000
vt 0.000000 1.000000
vt 1.000000 0.000000
vt 1.000000 1.000000
vt 0.500000 -0.000000
vt 1.000000 -0.000000
vt 1.000000 0.500000
vn 0.000000 0.000000 -1.000000
vn 0.000000 0.000000 -1.000000
vn 0.000000 0.000000 -1.000000
vn 0.000000 0.000000 -1.000000
vn 0.000000 0.000000 -1.000000
vn 0.000000 0.000000 -1.000000
vn 1.000000 0.000000 0.000000
vn 1.000000 0.000000 0.000000
vn 1.000000 0.000000 0.000000
vn 1.000000 0.000000 0.000000
vn 1.000000 0.000000 0.000000
vn 1.000000 0.000000 0.000000
vn 1.000000 0.000000 0.000000
vn 1.000000 0.000000 0.000000
vn 0.000000 1.000000 0.000000
vn 0.000000 1.000000 0.000000
vn 0.000000 1.000000 0.000000
vn 0.000000 1.000000 0.000000
vn 0.000000 1.000000 0.000000
vn 0.000000 1.000000 0.000000
vn -1.000000 0.000000 -0.000000
vn -1.000000 0.000000 -0.000000
vn -1.000000 0.000000 -0.000000
vn -1.000000 0.000000 -0.000000
vn -1.000000 0.000000 -0.000000
vn -1.000000 0.000000 -0.000000
vn -1.000000 0.000000 -0.000000
vn -1.000000 0.000000 -0.000000
vn 0.000000 -1.000000 0.000000
vn 0.000000 -1.000000 0.000000
vn 0.000000 -1.000000 0.000000
vn 0.000000 -1.000000 0.000000
vn 0.000000 -1.000000 0.000000
vn 0.000000 -1.000000 0.000000
vn 0.000000 -1.000000 0.000000
vn 0.000000 -1.000000 0.000000
vn 0.000000 0.000000 1.000000
vn 0.000000 0.000000 1.000000
vn 0.000000 0.000000 1.000000
vn 0.000000 0.000000 1.000000
vn 0.000000 0.000000 1.000000
vn 0.000000 0.000000 1.000000
vn 0.000000 0.000000 1.000000
vn 0.000000 0.000000 1.000000
vn 0.000000 0.000000 -1.000000
vn 0.000000 0.000000 -1.000000
vn 0.000000 0.000000 -1.000000
vn 0.000000 0.000000 -1.000000
vn 0.000000 1.000000 0.000000
vn 0.000000 1.000000 0.000000
vn 0.000000 1.000000 0.000000
vn 0.000000 1.000000 0.000000
s 1
g pCube1
usemtl lambert2SG
f 9/27/1 2/28/2 21/9/3
f 2/28/2 19/29/4 21/9/3
f 21/9/3 19/29/4 16/49/5
f 19/29/4 6/48/6 16/49/5
s 2
f 10/2/7 3/3/8 7/1/9
f 3/3/8 11/12/10 7/1/9
f 11/12/10 1/13/11 7/1/9
f 1/13/11 8/14/12 7/1/9
f 7/1/9 8/14/12 9/16/13
f 8/14/12 2/15/14 9/16/13
s 3
f 13/19/15 4/33/16 12/17/17
f 4/33/16 14/34/18 12/17/17
f 12/17/17 14/34/18 10/36/19
f 14/34/18 3/35/20 10/36/19
s 4
f 16/18/21 6/20/22 15/4/23
f 6/20/22 17/21/24 15/4/23
f 17/21/24 5/23/25 15/4/23
f 5/23/25 18/50/26 15/4/23
f 15/4/23 18/50/26 13/52/27
f 18/50/26 4/51/28 13/52/27
s 5
f 2/6/29 8/7/30 19/5/31
f 1/8/32 20/22/33 8/7/30
f 8/7/30 20/22/33 19/5/31
f 19/5/31 20/22/33 6/26/34
f 6/26/34 20/22/33 17/25/35
f 20/22/33 5/24/36 17/25/35
s 6
f 4/11/37 18/30/38 14/10/39
f 5/31/40 20/32/41 18/30/38
f 18/30/38 20/32/41 14/10/39
f 14/10/39 20/32/41 3/43/42
f 3/43/42 20/32/41 11/42/43
f 20/32/41 1/41/44 11/42/43
s 7
f 10/44/45 7/45/46 13/47/47
f 13/47/47 7/45/46 15/46/48
s 8
f 7/37/49 9/38/50 15/40/51
f 15/40/51 9/38/50 16/39/52
