# This file uses centimeters as units for non-parametric coordinates.

mtllib Valla.mtl
g default
v -0.500000 0.586037 0.065520
v -0.500000 0.461037 0.065520
v 0.500000 0.586037 0.065520
v 0.500000 0.461037 0.065520
v 0.500000 0.586037 -0.059480
v 0.500000 0.461037 -0.059480
v -0.500000 0.586037 -0.059480
v -0.500000 0.461037 -0.059480
v -0.500000 0.881167 0.065520
v -0.500000 0.756167 0.065520
v 0.500000 0.881167 0.065520
v 0.500000 0.756167 0.065520
v 0.500000 0.881167 -0.059480
v 0.500000 0.756167 -0.059480
v -0.500000 0.881167 -0.059480
v -0.500000 0.756167 -0.059480
v 0.333875 0.000000 0.125000
v 0.583875 0.000000 0.125000
v 0.333875 1.000000 0.125000
v 0.583875 1.000000 0.125000
v 0.333875 1.000000 -0.125000
v 0.583875 1.000000 -0.125000
v 0.333875 0.000000 -0.125000
v 0.583875 0.000000 -0.125000
v -0.625000 0.000000 0.125000
v -0.375000 0.000000 0.125000
v -0.625000 1.000000 0.125000
v -0.375000 1.000000 0.125000
v -0.625000 1.000000 -0.125000
v -0.375000 1.000000 -0.125000
v -0.625000 0.000000 -0.125000
v -0.375000 0.000000 -0.125000
vt 0.375000 0.000000
vt 0.625000 0.000000
vt 0.375000 0.250000
vt 0.625000 0.250000
vt 0.375000 0.500000
vt 0.625000 0.500000
vt 0.375000 0.750000
vt 0.625000 0.750000
vt 0.375000 1.000000
vt 0.625000 1.000000
vt 0.875000 0.000000
vt 0.875000 0.250000
vt 0.125000 0.000000
vt 0.125000 0.250000
vt 0.375000 0.000000
vt 0.625000 0.000000
vt 0.625000 0.250000
vt 0.375000 0.250000
vt 0.625000 0.500000
vt 0.375000 0.500000
vt 0.625000 0.750000
vt 0.375000 0.750000
vt 0.625000 1.000000
vt 0.375000 1.000000
vt 0.875000 0.000000
vt 0.875000 0.250000
vt 0.125000 0.000000
vt 0.125000 0.250000
vt 0.479082 0.000000
vt 0.520918 0.000000
vt 0.520918 1.000000
vt 0.479082 1.000000
vt 0.499681 0.329693
vt 0.500312 0.329863
vt 0.500303 0.500000
vt 0.499690 0.500000
vt 0.398950 0.000000
vt 0.601050 0.000000
vt 0.601050 1.000000
vt 0.398950 1.000000
vt 0.499690 0.670029
vt 0.500303 0.669859
vt 0.500312 0.840274
vt 0.499681 0.840615
vt 0.495187 0.069991
vt 0.504813 0.069991
vt 0.504813 0.930009
vt 0.495187 0.930009
vt 0.499071 0.159941
vt 0.499681 0.159385
vt 0.499071 0.329971
vt 0.349956 0.000000
vt 0.650044 0.000000
vt 0.650044 1.000000
vt 0.349956 1.000000
vt 0.498194 0.370147
vt 0.501859 0.369815
vt 0.501855 0.500000
vt 0.498198 0.500000
vt 0.492790 0.240873
vt 0.507420 0.240209
vt 0.507420 0.759791
vt 0.492790 0.759127
vt 0.498198 0.629564
vt 0.501855 0.629896
vt 0.501859 0.760371
vt 0.498194 0.759705
vt 0.501859 0.239629
vt 0.505565 0.240209
vt 0.505565 0.370104
vt 0.473502 0.146982
vt 0.526123 0.146982
vt 0.526123 0.853018
vt 0.473502 0.853018
vn 0.000000 0.000000 1.000000
vn 0.000000 0.000000 1.000000
vn 0.000000 0.000000 1.000000
vn 0.000000 0.000000 1.000000
vn 1.000000 0.000000 0.000000
vn 1.000000 0.000000 0.000000
vn 1.000000 0.000000 0.000000
vn 1.000000 0.000000 0.000000
vn 0.000000 0.000000 -1.000000
vn 0.000000 0.000000 -1.000000
vn 0.000000 0.000000 -1.000000
vn 0.000000 0.000000 -1.000000
vn -1.000000 0.000000 0.000000
vn -1.000000 0.000000 0.000000
vn -1.000000 0.000000 0.000000
vn -1.000000 0.000000 0.000000
vn 0.000000 -1.000000 0.000000
vn 0.000000 -1.000000 0.000000
vn 0.000000 -1.000000 0.000000
vn 0.000000 -1.000000 0.000000
vn 0.000000 1.000000 0.000000
vn 0.000000 1.000000 0.000000
vn 0.000000 1.000000 0.000000
vn 0.000000 1.000000 0.000000
vn 0.000000 0.000000 1.000000
vn 0.000000 0.000000 1.000000
vn 0.000000 0.000000 1.000000
vn 0.000000 0.000000 1.000000
vn 1.000000 0.000000 0.000000
vn 1.000000 0.000000 0.000000
vn 1.000000 0.000000 0.000000
vn 1.000000 0.000000 0.000000
vn 0.000000 0.000000 -1.000000
vn 0.000000 0.000000 -1.000000
vn 0.000000 0.000000 -1.000000
vn 0.000000 0.000000 -1.000000
vn -1.000000 0.000000 0.000000
vn -1.000000 0.000000 0.000000
vn -1.000000 0.000000 0.000000
vn -1.000000 0.000000 0.000000
vn 0.000000 -1.000000 0.000000
vn 0.000000 -1.000000 0.000000
vn 0.000000 -1.000000 0.000000
vn 0.000000 -1.000000 0.000000
vn 0.000000 1.000000 0.000000
vn 0.000000 1.000000 0.000000
vn 0.000000 1.000000 0.000000
vn 0.000000 1.000000 0.000000
vn 0.000000 0.000000 1.000000
vn 0.000000 0.000000 1.000000
vn 0.000000 0.000000 1.000000
vn 0.000000 0.000000 1.000000
vn 0.000000 1.000000 0.000000
vn 0.000000 1.000000 0.000000
vn 0.000000 1.000000 0.000000
vn 0.000000 1.000000 0.000000
vn 0.000000 0.000000 -1.000000
vn 0.000000 0.000000 -1.000000
vn 0.000000 0.000000 -1.000000
vn 0.000000 0.000000 -1.000000
vn 0.000000 -1.000000 0.000000
vn 0.000000 -1.000000 0.000000
vn 0.000000 -1.000000 0.000000
vn 0.000000 -1.000000 0.000000
vn 1.000000 0.000000 0.000000
vn 1.000000 0.000000 0.000000
vn 1.000000 0.000000 0.000000
vn 1.000000 0.000000 0.000000
vn -1.000000 0.000000 0.000000
vn -1.000000 0.000000 0.000000
vn -1.000000 0.000000 0.000000
vn -1.000000 0.000000 0.000000
vn 0.000000 0.000000 1.000000
vn 0.000000 0.000000 1.000000
vn 0.000000 0.000000 1.000000
vn 0.000000 0.000000 1.000000
vn 0.000000 1.000000 0.000000
vn 0.000000 1.000000 0.000000
vn 0.000000 1.000000 0.000000
vn 0.000000 1.000000 0.000000
vn 0.000000 0.000000 -1.000000
vn 0.000000 0.000000 -1.000000
vn 0.000000 0.000000 -1.000000
vn 0.000000 0.000000 -1.000000
vn 0.000000 -1.000000 0.000000
vn 0.000000 -1.000000 0.000000
vn 0.000000 -1.000000 0.000000
vn 0.000000 -1.000000 0.000000
vn 1.000000 0.000000 0.000000
vn 1.000000 0.000000 0.000000
vn 1.000000 0.000000 0.000000
vn 1.000000 0.000000 0.000000
vn -1.000000 0.000000 0.000000
vn -1.000000 0.000000 0.000000
vn -1.000000 0.000000 0.000000
vn -1.000000 0.000000 0.000000
s 1
g pasted__pCube2
usemtl lambert2SG
f 1/1/1 2/2/2 3/3/3
f 3/3/3 2/2/2 4/4/4
s 2
f 3/3/5 4/4/6 5/5/7
f 5/5/7 4/4/6 6/6/8
s 3
f 5/5/9 6/6/10 7/7/11
f 7/7/11 6/6/10 8/8/12
s 4
f 7/7/13 8/8/14 1/9/15
f 1/9/15 8/8/14 2/10/16
s 5
f 2/2/17 8/11/18 4/4/19
f 4/4/19 8/11/18 6/12/20
s 6
f 7/13/21 1/1/22 5/14/23
f 5/14/23 1/1/22 3/3/24
s 7
f 9/15/25 10/16/26 11/18/27
f 11/18/27 10/16/26 12/17/28
s 8
f 11/18/29 12/17/30 13/20/31
f 13/20/31 12/17/30 14/19/32
s 9
f 13/20/33 14/19/34 15/22/35
f 15/22/35 14/19/34 16/21/36
s 10
f 15/22/37 16/21/38 9/24/39
f 9/24/39 16/21/38 10/23/40
s 11
f 10/16/41 16/25/42 12/17/43
f 12/17/43 16/25/42 14/26/44
s 12
f 15/27/45 9/15/46 13/28/47
f 13/28/47 9/15/46 11/18/48
s 13
f 17/29/49 18/30/50 19/32/51
f 19/32/51 18/30/50 20/31/52
s 14
f 19/33/53 20/34/54 21/36/55
f 21/36/55 20/34/54 22/35/56
s 15
f 21/37/57 22/38/58 23/40/59
f 23/40/59 22/38/58 24/39/60
s 16
f 23/41/61 24/42/62 17/44/63
f 17/44/63 24/42/62 18/43/64
s 17
f 18/45/65 24/46/66 20/48/67
f 20/48/67 24/46/66 22/47/68
s 18
f 23/49/69 17/50/70 21/51/71
f 21/51/71 17/50/70 19/33/72
s 19
f 25/52/73 26/53/74 27/55/75
f 27/55/75 26/53/74 28/54/76
s 20
f 27/56/77 28/57/78 29/59/79
f 29/59/79 28/57/78 30/58/80
s 21
f 29/60/81 30/61/82 31/63/83
f 31/63/83 30/61/82 32/62/84
s 22
f 31/64/85 32/65/86 25/67/87
f 25/67/87 32/65/86 26/66/88
s 23
f 26/68/89 32/69/90 28/57/91
f 28/57/91 32/69/90 30/70/92
s 24
f 31/71/93 25/72/94 29/74/95
f 29/74/95 25/72/94 27/73/96
g default
v -0.500000 0.586037 0.065520
v -0.500000 0.461037 0.065520
v 0.500000 0.586037 0.065520
v 0.500000 0.461037 0.065520
v 0.500000 0.586037 -0.059480
v 0.500000 0.461037 -0.059480
v -0.500000 0.586037 -0.059480
v -0.500000 0.461037 -0.059480
v -0.500000 0.881167 0.065520
v -0.500000 0.756167 0.065520
v 0.500000 0.881167 0.065520
v 0.500000 0.756167 0.065520
v 0.500000 0.881167 -0.059480
v 0.500000 0.756167 -0.059480
v -0.500000 0.881167 -0.059480
v -0.500000 0.756167 -0.059480
v 0.333875 0.000000 0.125000
v 0.583875 0.000000 0.125000
v 0.333875 1.000000 0.125000
v 0.583875 1.000000 0.125000
v 0.333875 1.000000 -0.125000
v 0.583875 1.000000 -0.125000
v 0.333875 0.000000 -0.125000
v 0.583875 0.000000 -0.125000
v -0.625000 0.000000 0.125000
v -0.375000 0.000000 0.125000
v -0.625000 1.000000 0.125000
v -0.375000 1.000000 0.125000
v -0.625000 1.000000 -0.125000
v -0.375000 1.000000 -0.125000
v -0.625000 0.000000 -0.125000
v -0.375000 0.000000 -0.125000
vt 0.375000 0.000000
vt 0.625000 0.000000
vt 0.375000 0.250000
vt 0.625000 0.250000
vt 0.375000 0.500000
vt 0.625000 0.500000
vt 0.375000 0.750000
vt 0.625000 0.750000
vt 0.375000 1.000000
vt 0.625000 1.000000
vt 0.875000 0.000000
vt 0.875000 0.250000
vt 0.125000 0.000000
vt 0.125000 0.250000
vt 0.375000 0.000000
vt 0.625000 0.000000
vt 0.625000 0.250000
vt 0.375000 0.250000
vt 0.625000 0.500000
vt 0.375000 0.500000
vt 0.625000 0.750000
vt 0.375000 0.750000
vt 0.625000 1.000000
vt 0.375000 1.000000
vt 0.875000 0.000000
vt 0.875000 0.250000
vt 0.125000 0.000000
vt 0.125000 0.250000
vt 0.479082 0.000000
vt 0.520918 0.000000
vt 0.520918 1.000000
vt 0.479082 1.000000
vt 0.499681 0.329693
vt 0.500312 0.329863
vt 0.500303 0.500000
vt 0.499690 0.500000
vt 0.398950 0.000000
vt 0.601050 0.000000
vt 0.601050 1.000000
vt 0.398950 1.000000
vt 0.499690 0.670029
vt 0.500303 0.669859
vt 0.500312 0.840274
vt 0.499681 0.840615
vt 0.495187 0.069991
vt 0.504813 0.069991
vt 0.504813 0.930009
vt 0.495187 0.930009
vt 0.499071 0.159941
vt 0.499681 0.159385
vt 0.499071 0.329971
vt 0.349956 0.000000
vt 0.650044 0.000000
vt 0.650044 1.000000
vt 0.349956 1.000000
vt 0.498194 0.370147
vt 0.501859 0.369815
vt 0.501855 0.500000
vt 0.498198 0.500000
vt 0.492790 0.240873
vt 0.507420 0.240209
vt 0.507420 0.759791
vt 0.492790 0.759127
vt 0.498198 0.629564
vt 0.501855 0.629896
vt 0.501859 0.760371
vt 0.498194 0.759705
vt 0.501859 0.239629
vt 0.505565 0.240209
vt 0.505565 0.370104
vt 0.473502 0.146982
vt 0.526123 0.146982
vt 0.526123 0.853018
vt 0.473502 0.853018
vn 0.000000 0.000000 1.000000
vn 0.000000 0.000000 1.000000
vn 0.000000 0.000000 1.000000
vn 0.000000 0.000000 1.000000
vn 1.000000 0.000000 0.000000
vn 1.000000 0.000000 0.000000
vn 1.000000 0.000000 0.000000
vn 1.000000 0.000000 0.000000
vn 0.000000 0.000000 -1.000000
vn 0.000000 0.000000 -1.000000
vn 0.000000 0.000000 -1.000000
vn 0.000000 0.000000 -1.000000
vn -1.000000 0.000000 0.000000
vn -1.000000 0.000000 0.000000
vn -1.000000 0.000000 0.000000
vn -1.000000 0.000000 0.000000
vn 0.000000 -1.000000 0.000000
vn 0.000000 -1.000000 0.000000
vn 0.000000 -1.000000 0.000000
vn 0.000000 -1.000000 0.000000
vn 0.000000 1.000000 0.000000
vn 0.000000 1.000000 0.000000
vn 0.000000 1.000000 0.000000
vn 0.000000 1.000000 0.000000
vn 0.000000 0.000000 1.000000
vn 0.000000 0.000000 1.000000
vn 0.000000 0.000000 1.000000
vn 0.000000 0.000000 1.000000
vn 1.000000 0.000000 0.000000
vn 1.000000 0.000000 0.000000
vn 1.000000 0.000000 0.000000
vn 1.000000 0.000000 0.000000
vn 0.000000 0.000000 -1.000000
vn 0.000000 0.000000 -1.000000
vn 0.000000 0.000000 -1.000000
vn 0.000000 0.000000 -1.000000
vn -1.000000 0.000000 0.000000
vn -1.000000 0.000000 0.000000
vn -1.000000 0.000000 0.000000
vn -1.000000 0.000000 0.000000
vn 0.000000 -1.000000 0.000000
vn 0.000000 -1.000000 0.000000
vn 0.000000 -1.000000 0.000000
vn 0.000000 -1.000000 0.000000
vn 0.000000 1.000000 0.000000
vn 0.000000 1.000000 0.000000
vn 0.000000 1.000000 0.000000
vn 0.000000 1.000000 0.000000
vn 0.000000 0.000000 1.000000
vn 0.000000 0.000000 1.000000
vn 0.000000 0.000000 1.000000
vn 0.000000 0.000000 1.000000
vn 0.000000 1.000000 0.000000
vn 0.000000 1.000000 0.000000
vn 0.000000 1.000000 0.000000
vn 0.000000 1.000000 0.000000
vn 0.000000 0.000000 -1.000000
vn 0.000000 0.000000 -1.000000
vn 0.000000 0.000000 -1.000000
vn 0.000000 0.000000 -1.000000
vn 0.000000 -1.000000 0.000000
vn 0.000000 -1.000000 0.000000
vn 0.000000 -1.000000 0.000000
vn 0.000000 -1.000000 0.000000
vn 1.000000 0.000000 0.000000
vn 1.000000 0.000000 0.000000
vn 1.000000 0.000000 0.000000
vn 1.000000 0.000000 0.000000
vn -1.000000 0.000000 0.000000
vn -1.000000 0.000000 0.000000
vn -1.000000 0.000000 0.000000
vn -1.000000 0.000000 0.000000
vn 0.000000 0.000000 1.000000
vn 0.000000 0.000000 1.000000
vn 0.000000 0.000000 1.000000
vn 0.000000 0.000000 1.000000
vn 0.000000 1.000000 0.000000
vn 0.000000 1.000000 0.000000
vn 0.000000 1.000000 0.000000
vn 0.000000 1.000000 0.000000
vn 0.000000 0.000000 -1.000000
vn 0.000000 0.000000 -1.000000
vn 0.000000 0.000000 -1.000000
vn 0.000000 0.000000 -1.000000
vn 0.000000 -1.000000 0.000000
vn 0.000000 -1.000000 0.000000
vn 0.000000 -1.000000 0.000000
vn 0.000000 -1.000000 0.000000
vn 1.000000 0.000000 0.000000
vn 1.000000 0.000000 0.000000
vn 1.000000 0.000000 0.000000
vn 1.000000 0.000000 0.000000
vn -1.000000 0.000000 0.000000
vn -1.000000 0.000000 0.000000
vn -1.000000 0.000000 0.000000
vn -1.000000 0.000000 0.000000
s 1
g pasted__pCube2
f 33/75/97 34/76/98 35/77/99
f 35/77/99 34/76/98 36/78/100
s 2
f 35/77/101 36/78/102 37/79/103
f 37/79/103 36/78/102 38/80/104
s 3
f 37/79/105 38/80/106 39/81/107
f 39/81/107 38/80/106 40/82/108
s 4
f 39/81/109 40/82/110 33/83/111
f 33/83/111 40/82/110 34/84/112
s 5
f 34/76/113 40/85/114 36/78/115
f 36/78/115 40/85/114 38/86/116
s 6
f 39/87/117 33/75/118 37/88/119
f 37/88/119 33/75/118 35/77/120
s 7
f 41/89/121 42/90/122 43/92/123
f 43/92/123 42/90/122 44/91/124
s 8
f 43/92/125 44/91/126 45/94/127
f 45/94/127 44/91/126 46/93/128
s 9
f 45/94/129 46/93/130 47/96/131
f 47/96/131 46/93/130 48/95/132
s 10
f 47/96/133 48/95/134 41/98/135
f 41/98/135 48/95/134 42/97/136
s 11
f 42/90/137 48/99/138 44/91/139
f 44/91/139 48/99/138 46/100/140
s 12
f 47/101/141 41/89/142 45/102/143
f 45/102/143 41/89/142 43/92/144
s 13
f 49/103/145 50/104/146 51/106/147
f 51/106/147 50/104/146 52/105/148
s 14
f 51/107/149 52/108/150 53/110/151
f 53/110/151 52/108/150 54/109/152
s 15
f 53/111/153 54/112/154 55/114/155
f 55/114/155 54/112/154 56/113/156
s 16
f 55/115/157 56/116/158 49/118/159
f 49/118/159 56/116/158 50/117/160
s 17
f 50/119/161 56/120/162 52/122/163
f 52/122/163 56/120/162 54/121/164
s 18
f 55/123/165 49/124/166 53/125/167
f 53/125/167 49/124/166 51/107/168
s 19
f 57/126/169 58/127/170 59/129/171
f 59/129/171 58/127/170 60/128/172
s 20
f 59/130/173 60/131/174 61/133/175
f 61/133/175 60/131/174 62/132/176
s 21
f 61/134/177 62/135/178 63/137/179
f 63/137/179 62/135/178 64/136/180
s 22
f 63/138/181 64/139/182 57/141/183
f 57/141/183 64/139/182 58/140/184
s 23
f 58/142/185 64/143/186 60/131/187
f 60/131/187 64/143/186 62/144/188
s 24
f 63/145/189 57/146/190 61/148/191
f 61/148/191 57/146/190 59/147/192
